<svg width="145" height="144" viewBox="0 0 145 144" fill="none" xmlns="http://www.w3.org/2000/svg">
<g filter="url(#filter0_d)">
<circle r="36" transform="matrix(-1 0 0 1 72.6187 56)" fill="#C71A1A"/>
<path d="M74.469 62.5145L80.2429 56.7406C80.4714 56.5241 80.5857 56.2534 80.5857 55.9286C80.5857 55.6039 80.4714 55.3332 80.2429 55.1167L74.469 49.3428C74.2525 49.1143 73.9818 49 73.6571 49C73.3323 49 73.0616 49.1143 72.8451 49.3428C72.6166 49.5593 72.5023 49.83 72.5023 50.1548C72.5023 50.4796 72.6166 50.7502 72.8451 50.9667L76.6342 54.7739H65.5736C65.2489 54.7739 64.9782 54.8881 64.7617 55.1167C64.5331 55.3332 64.4189 55.6039 64.4189 55.9286C64.4189 56.2534 64.5331 56.5301 64.7617 56.7586C64.9782 56.9752 65.2489 57.0834 65.5736 57.0834H76.6342L72.8451 60.8906C72.7248 60.9988 72.6406 61.1251 72.5925 61.2695C72.5324 61.4138 72.5023 61.5582 72.5023 61.7025C72.5023 61.8469 72.5324 61.9912 72.5925 62.1355C72.6406 62.2799 72.7248 62.4062 72.8451 62.5145C73.0616 62.743 73.3323 62.8573 73.6571 62.8573C73.9818 62.8573 74.2525 62.743 74.469 62.5145Z" fill="#C71A1A"/>
<g clip-path="url(#clip0)">
<path d="M59.3144 49.2793H54.2481C53.5486 49.2793 52.9814 49.8444 52.9814 50.5416V70.7374C52.9814 71.4345 53.5485 71.9997 54.2481 71.9997H59.3143C60.0138 71.9997 60.5809 71.4346 60.5809 70.7374V50.5415C60.5809 49.8444 60.0139 49.2793 59.3144 49.2793Z" fill="white"/>
<path d="M90.9533 52.6266C90.7299 50.6685 88.8946 49.2807 86.9171 49.2807H77.0426C77.8817 47.7832 78.3322 43.5476 78.3122 41.8174C78.2791 38.9533 75.8992 36.6582 73.0252 36.6582H71.9801C71.28 36.6582 70.7135 37.2227 70.7135 37.9205C70.7135 40.8394 69.573 46.1079 67.4222 48.2515C65.9745 49.6942 64.7368 50.217 63.114 51.0253V69.9652C65.5986 70.7906 68.7532 72.0012 73.5615 72.0012H81.8468C84.5768 72.0012 86.703 69.4814 85.6451 66.8191C87.2568 66.3816 88.4454 64.9085 88.4454 63.1655C88.4454 62.6736 88.3502 62.2028 88.1783 61.7701C90.8943 61.0326 91.894 57.6905 90.0089 55.5919C90.7014 54.8209 91.0834 53.7662 90.9533 52.6266Z" fill="white"/>
</g>
<rect x="-0.5" y="0.5" width="79.2741" height="79" rx="39.5" transform="matrix(-1 0 0 1 111.619 16)" stroke="#C71A1A"/>
</g>
<defs>
<filter id="filter0_d" x="0.344482" y="0" width="144.274" height="144" filterUnits="userSpaceOnUse" color-interpolation-filters="sRGB">
<feFlood flood-opacity="0" result="BackgroundImageFix"/>
<feColorMatrix in="SourceAlpha" type="matrix" values="0 0 0 0 0 0 0 0 0 0 0 0 0 0 0 0 0 0 127 0"/>
<feOffset dy="16"/>
<feGaussianBlur stdDeviation="16"/>
<feColorMatrix type="matrix" values="0 0 0 0 0.625 0 0 0 0 0.625 0 0 0 0 0.625 0 0 0 0.4 0"/>
<feBlend mode="normal" in2="BackgroundImageFix" result="effect1_dropShadow"/>
<feBlend mode="normal" in="SourceGraphic" in2="effect1_dropShadow" result="shape"/>
</filter>
<clipPath id="clip0">
<rect width="43.1473" height="43" fill="white" transform="translate(50.4062 29)"/>
</clipPath>
</defs>
</svg>
