<svg width="145" height="144" viewBox="0 0 145 144" fill="none" xmlns="http://www.w3.org/2000/svg">
<g filter="url(#filter0_d)">
<circle r="36" transform="matrix(-1 0 0 1 72.2739 56)" fill="#007DB7"/>
<path d="M74.1243 62.5145L79.8981 56.7406C80.1267 56.5241 80.241 56.2534 80.241 55.9286C80.241 55.6039 80.1267 55.3332 79.8981 55.1167L74.1243 49.3428C73.9078 49.1143 73.6371 49 73.3123 49C72.9875 49 72.7169 49.1143 72.5004 49.3428C72.2718 49.5593 72.1576 49.83 72.1576 50.1548C72.1576 50.4796 72.2718 50.7502 72.5004 50.9667L76.2895 54.7739H65.2289C64.9041 54.7739 64.6335 54.8881 64.417 55.1167C64.1884 55.3332 64.0741 55.6039 64.0741 55.9286C64.0741 56.2534 64.1884 56.5301 64.417 56.7586C64.6335 56.9752 64.9041 57.0834 65.2289 57.0834H76.2895L72.5004 60.8906C72.3801 60.9988 72.2959 61.1251 72.2478 61.2695C72.1876 61.4138 72.1576 61.5582 72.1576 61.7025C72.1576 61.8469 72.1876 61.9912 72.2478 62.1355C72.2959 62.2799 72.3801 62.4062 72.5004 62.5145C72.7169 62.743 72.9875 62.8573 73.3123 62.8573C73.6371 62.8573 73.9078 62.743 74.1243 62.5145Z" fill="#007DB7"/>
<g clip-path="url(#clip0)">
<path d="M58.9697 49.2793H53.9033C53.2039 49.2793 52.6367 49.8444 52.6367 50.5416V70.7374C52.6367 71.4345 53.2038 71.9997 53.9033 71.9997H58.9696C59.669 71.9997 60.2362 71.4346 60.2362 70.7374V50.5415C60.2362 49.8444 59.6692 49.2793 58.9697 49.2793Z" fill="white"/>
<path d="M90.6086 52.6266C90.3852 50.6685 88.5498 49.2807 86.5724 49.2807H76.6978C77.537 47.7832 77.9874 43.5476 77.9675 41.8174C77.9344 38.9533 75.5544 36.6582 72.6805 36.6582H71.6354C70.9353 36.6582 70.3688 37.2227 70.3688 37.9205C70.3688 40.8394 69.2283 46.1079 67.0774 48.2515C65.6297 49.6942 64.3921 50.217 62.7693 51.0253V69.9652C65.2539 70.7906 68.4085 72.0012 73.2168 72.0012H81.5021C84.2321 72.0012 86.3583 69.4814 85.3004 66.8191C86.9121 66.3816 88.1007 64.9085 88.1007 63.1655C88.1007 62.6736 88.0054 62.2028 87.8335 61.7701C90.5495 61.0326 91.5492 57.6905 89.6642 55.5919C90.3567 54.8209 90.7386 53.7662 90.6086 52.6266Z" fill="white"/>
</g>
<rect x="-0.5" y="0.5" width="79.2741" height="79" rx="39.5" transform="matrix(-1 0 0 1 111.274 16)" stroke="#007DB7"/>
</g>
<defs>
<filter id="filter0_d" x="-0.000244141" y="0" width="144.274" height="144" filterUnits="userSpaceOnUse" color-interpolation-filters="sRGB">
<feFlood flood-opacity="0" result="BackgroundImageFix"/>
<feColorMatrix in="SourceAlpha" type="matrix" values="0 0 0 0 0 0 0 0 0 0 0 0 0 0 0 0 0 0 127 0"/>
<feOffset dy="16"/>
<feGaussianBlur stdDeviation="16"/>
<feColorMatrix type="matrix" values="0 0 0 0 0.625 0 0 0 0 0.625 0 0 0 0 0.625 0 0 0 0.4 0"/>
<feBlend mode="normal" in2="BackgroundImageFix" result="effect1_dropShadow"/>
<feBlend mode="normal" in="SourceGraphic" in2="effect1_dropShadow" result="shape"/>
</filter>
<clipPath id="clip0">
<rect width="43.1473" height="43" fill="white" transform="translate(50.0615 29)"/>
</clipPath>
</defs>
</svg>
