<svg width="126" height="23" viewBox="0 0 126 23" fill="none" xmlns="http://www.w3.org/2000/svg">
<path d="M68.2672 3.05017H84.4447V4.99824H71.0623V10.8425H81.1415V12.8752H71.0623V19.2276H84.4447V21.1757H68.2672V3.05017ZM76.6524 0.0857088L74.4503 2.54197L81.3109 0.0857088H76.6524ZM109.092 3.05017V21.1757H125.439V19.2276H111.633V3.05017H109.092ZM101.13 14.1457L96.726 5.50643L92.4064 14.1457H101.13ZM98.5047 3.05017L107.737 21.1757H104.688L102.316 16.5173H91.3053L88.9337 21.1757H85.7999L95.0321 3.05017H98.5047ZM57.2564 11.4353C58.6116 11.4353 60.0515 11.1813 60.729 9.99547C61.2372 9.23318 61.3219 8.21679 61.0678 7.36981C60.6443 6.18402 59.5433 5.25234 57.5105 5.25234H48.8712V11.52L57.2564 11.4353ZM59.4586 13.5528C61.0678 16.0091 65.0487 21.091 65.0487 21.091H61.7454L56.24 13.4681H48.7865V21.091H46.1609V3.05017H57.5952C61.4913 3.05017 63.6935 5.08294 63.9476 8.30149C64.0323 9.40258 63.6088 12.4517 59.4586 13.5528ZM42.9423 11.4353C42.9423 18.1266 37.4369 22.7003 30.5763 22.7003C23.7157 22.7003 18.2102 18.0419 18.2102 11.4353C18.2102 5.16764 23.2075 0.00101049 30.5763 0.00101049C37.8604 -0.0836883 42.9423 5.16764 42.9423 11.4353ZM39.9778 11.4353C40.1472 6.26872 36.1664 1.86438 30.9998 1.69499C25.8331 1.52559 21.4288 5.50643 21.2594 10.6731C21.09 15.8397 25.0708 20.244 30.2375 20.4134C30.3222 20.4134 30.4069 20.4134 30.4916 20.4134C35.5735 20.4134 39.9778 16.3479 39.9778 11.4353ZM11.6884 9.40258H13.5518L16.9398 2.96547H14.2294L11.6884 9.40258ZM0 3.05017V21.1757H16.3469V19.2276H2.54096V3.05017H0Z" fill="white"/>
</svg>
