<svg width="57" height="57" viewBox="0 0 57 57" fill="none" xmlns="http://www.w3.org/2000/svg">
<path fill-rule="evenodd" clip-rule="evenodd" d="M28.5 0L32.6632 7.21084H24.3368L28.5 0ZM42.7499 12.1447L35.5391 7.98154L42.7499 3.81835V12.1447ZM48.6339 21.4197L52.7971 14.2089H44.4707L48.6339 21.4197ZM0 28.5L7.21084 24.3368V32.6632L0 28.5ZM12.1446 14.2501H3.81827L7.98145 21.4609L12.1446 14.2501ZM13.8655 3.77711L21.0763 7.94029L13.8655 12.1035V3.77711ZM24.3368 49.7892L28.5 57L32.6632 49.7892L24.3368 49.7892ZM14.2501 53.1816L14.2501 44.8553L21.4609 49.0185L14.2501 53.1816ZM7.597 35.4978L3.43382 42.7086H11.7602L7.597 35.4978ZM57 28.5L49.7892 32.6632L49.7892 24.3368L57 28.5ZM44.8554 42.7499H53.1817L49.0186 35.5391L44.8554 42.7499ZM42.3655 53.1404L35.1547 48.9772L42.3655 44.814V53.1404ZM41.6084 28.8434C41.6084 36.083 35.7396 41.9518 28.5 41.9518C21.2604 41.9518 15.3916 36.083 15.3916 28.8434C15.3916 21.6038 21.2604 15.7349 28.5 15.7349C35.7396 15.7349 41.6084 21.6038 41.6084 28.8434ZM43.6084 28.8434C43.6084 37.1875 36.8442 43.9518 28.5 43.9518C20.1558 43.9518 13.3916 37.1875 13.3916 28.8434C13.3916 20.4992 20.1558 13.7349 28.5 13.7349C36.8442 13.7349 43.6084 20.4992 43.6084 28.8434Z" fill="#027498"/>
</svg>
