<svg width="20" height="20" viewBox="0 0 20 20" fill="none" xmlns="http://www.w3.org/2000/svg">
<path d="M0.645508 10.1133C0.730207 4.9467 4.88045 0.796458 10.0471 0.881157C15.129 0.965855 19.2792 5.0314 19.2792 10.1133C19.1945 15.28 15.0443 19.4302 9.87767 19.3455C4.79574 19.2608 0.730207 15.1953 0.645508 10.1133ZM18.0088 10.1133C18.0935 5.62429 14.5361 1.98224 10.0471 1.89754C5.55804 1.81284 1.91598 5.37019 1.83129 9.85923C1.83129 9.94393 1.83129 10.0286 1.83129 10.1133C1.74659 14.6024 5.30396 18.2444 9.79299 18.3291C14.282 18.4138 17.9241 14.8565 18.0088 10.3674C18.0088 10.2827 18.0088 10.198 18.0088 10.1133Z" fill="white"/>
</svg>
