<svg width="40" height="41" viewBox="0 0 40 41" fill="none" xmlns="http://www.w3.org/2000/svg">
<circle cx="20" cy="20.2578" r="16" fill="url(#paint0_linear)"/>
<rect x="19.0479" y="10.7832" width="2.60652" height="18.2456" rx="1.08333" fill="#58C141"/>
<rect x="29.4736" y="18.6035" width="2.60652" height="18.2456" rx="1.08333" transform="rotate(90 29.4736 18.6035)" fill="#58C141"/>
<path d="M20 39.2578C9.50659 39.2578 1 30.7512 1 20.2578H-1C-1 31.8558 8.40202 41.2578 20 41.2578V39.2578ZM39 20.2578C39 30.7512 30.4934 39.2578 20 39.2578V41.2578C31.598 41.2578 41 31.8558 41 20.2578H39ZM20 1.25781C30.4934 1.25781 39 9.7644 39 20.2578H41C41 8.65983 31.598 -0.742188 20 -0.742188V1.25781ZM20 -0.742188C8.40202 -0.742188 -1 8.65983 -1 20.2578H1C1 9.7644 9.50659 1.25781 20 1.25781V-0.742188Z" fill="url(#paint1_linear)"/>
<defs>
<linearGradient id="paint0_linear" x1="20" y1="4.25781" x2="20" y2="36.2578" gradientUnits="userSpaceOnUse">
<stop stop-color="white" stop-opacity="0.76"/>
<stop offset="1" stop-color="white"/>
</linearGradient>
<linearGradient id="paint1_linear" x1="20" y1="0.257812" x2="20" y2="40.2578" gradientUnits="userSpaceOnUse">
<stop stop-color="white" stop-opacity="0.76"/>
<stop offset="1" stop-color="white"/>
</linearGradient>
</defs>
</svg>
