<svg width="145" height="144" viewBox="0 0 145 144" fill="none" xmlns="http://www.w3.org/2000/svg">
<g filter="url(#filter0_d)">
<circle r="36" transform="matrix(-1 0 0 1 72.6187 56)" fill="white"/>
<path d="M74.4688 62.5145L80.2426 56.7406C80.4712 56.5241 80.5854 56.2534 80.5854 55.9286C80.5854 55.6039 80.4712 55.3332 80.2426 55.1167L74.4688 49.3428C74.2522 49.1143 73.9816 49 73.6568 49C73.332 49 73.0614 49.1143 72.8449 49.3428C72.6163 49.5593 72.502 49.83 72.502 50.1548C72.502 50.4796 72.6163 50.7502 72.8449 50.9667L76.634 54.7739H65.5734C65.2486 54.7739 64.978 54.8881 64.7614 55.1167C64.5329 55.3332 64.4186 55.6039 64.4186 55.9286C64.4186 56.2534 64.5329 56.5301 64.7614 56.7586C64.978 56.9752 65.2486 57.0834 65.5734 57.0834H76.634L72.8449 60.8906C72.7246 60.9988 72.6404 61.1251 72.5923 61.2695C72.5321 61.4138 72.502 61.5582 72.502 61.7025C72.502 61.8469 72.5321 61.9912 72.5923 62.1355C72.6404 62.2799 72.7246 62.4062 72.8449 62.5145C73.0614 62.743 73.332 62.8573 73.6568 62.8573C73.9816 62.8573 74.2522 62.743 74.4688 62.5145Z" fill="white"/>
<g clip-path="url(#clip0)">
<path d="M59.3144 49.2798H54.2481C53.5486 49.2798 52.9814 49.8449 52.9814 50.5421V70.7379C52.9814 71.435 53.5485 72.0002 54.2481 72.0002H59.3143C60.0138 72.0002 60.5809 71.4351 60.5809 70.7379V50.542C60.5809 49.8449 60.0139 49.2798 59.3144 49.2798Z" fill="#34B1A7"/>
<path d="M90.9536 52.6258C90.7302 50.6677 88.8948 49.2798 86.9174 49.2798H77.0428C77.882 47.7823 78.3324 43.5467 78.3124 41.8165C78.2793 38.9525 75.8994 36.6573 73.0255 36.6573H71.9803C71.2803 36.6573 70.7137 37.2219 70.7137 37.9196C70.7137 40.8385 69.5733 46.107 67.4224 48.2506C65.9747 49.6934 64.7371 50.2162 63.1143 51.0244V69.9644C65.5988 70.7897 68.7535 72.0003 73.5618 72.0003H81.8471C84.5771 72.0003 86.7032 69.4806 85.6454 66.8183C87.2571 66.3807 88.4456 64.9076 88.4456 63.1646C88.4456 62.6727 88.3504 62.2019 88.1785 61.7692C90.8945 61.0317 91.8942 57.6896 90.0091 55.5911C90.7017 54.82 91.0836 53.7654 90.9536 52.6258Z" fill="#34B1A7"/>
</g>
<rect x="-0.5" y="0.5" width="79.2741" height="79" rx="39.5" transform="matrix(-1 0 0 1 111.619 16)" stroke="white"/>
</g>
<defs>
<filter id="filter0_d" x="0.344727" y="0" width="144.274" height="144" filterUnits="userSpaceOnUse" color-interpolation-filters="sRGB">
<feFlood flood-opacity="0" result="BackgroundImageFix"/>
<feColorMatrix in="SourceAlpha" type="matrix" values="0 0 0 0 0 0 0 0 0 0 0 0 0 0 0 0 0 0 127 0"/>
<feOffset dy="16"/>
<feGaussianBlur stdDeviation="16"/>
<feColorMatrix type="matrix" values="0 0 0 0 0.625 0 0 0 0 0.625 0 0 0 0 0.625 0 0 0 0.4 0"/>
<feBlend mode="normal" in2="BackgroundImageFix" result="effect1_dropShadow"/>
<feBlend mode="normal" in="SourceGraphic" in2="effect1_dropShadow" result="shape"/>
</filter>
<clipPath id="clip0">
<rect width="43.1473" height="43" fill="white" transform="translate(50.4062 29)"/>
</clipPath>
</defs>
</svg>
