<svg width="40" height="40" viewBox="0 0 40 40" fill="none" xmlns="http://www.w3.org/2000/svg">
<circle r="16" transform="matrix(-1 0 0 1 20 20)" fill="#027498"/>
<path d="M21.8501 26.5145L27.624 20.7406C27.8525 20.5241 27.9668 20.2534 27.9668 19.9286C27.9668 19.6039 27.8525 19.3332 27.624 19.1167L21.8501 13.3428C21.6336 13.1143 21.3629 13 21.0382 13C20.7134 13 20.4427 13.1143 20.2262 13.3428C19.9977 13.5593 19.8834 13.83 19.8834 14.1548C19.8834 14.4796 19.9977 14.7502 20.2262 14.9667L24.0153 18.7739H12.9547C12.63 18.7739 12.3593 18.8881 12.1428 19.1167C11.9142 19.3332 11.8 19.6039 11.8 19.9286C11.8 20.2534 11.9142 20.5301 12.1428 20.7586C12.3593 20.9752 12.63 21.0834 12.9547 21.0834H24.0153L20.2262 24.8906C20.1059 24.9988 20.0217 25.1251 19.9736 25.2695C19.9135 25.4138 19.8834 25.5582 19.8834 25.7025C19.8834 25.8469 19.9135 25.9912 19.9736 26.1355C20.0217 26.2799 20.1059 26.4062 20.2262 26.5145C20.4427 26.743 20.7134 26.8573 21.0382 26.8573C21.3629 26.8573 21.6336 26.743 21.8501 26.5145Z" fill="white"/>
<path d="M20 39C30.4934 39 39 30.4934 39 20H41C41 31.598 31.598 41 20 41V39ZM1 20C1 30.4934 9.50659 39 20 39V41C8.40202 41 -1 31.598 -1 20H1ZM20 1C9.50659 1 1 9.50659 1 20H-1C-1 8.40202 8.40202 -1 20 -1V1ZM20 -1C31.598 -1 41 8.40202 41 20H39C39 9.50659 30.4934 1 20 1V-1Z" fill="#027498"/>
</svg>
