<svg width="40" height="40" viewBox="0 0 40 40" fill="none" xmlns="http://www.w3.org/2000/svg">
<circle cx="20" cy="20" r="16" fill="white"/>
<rect x="19.0479" y="10.5273" width="2.60652" height="18.2456" rx="1.08333" fill="#007DB7"/>
<rect x="29.4736" y="18.3477" width="2.60652" height="18.2456" rx="1.08333" transform="rotate(90 29.4736 18.3477)" fill="#007DB7"/>
<path d="M20 39C9.50659 39 1 30.4934 1 20H-1C-1 31.598 8.40202 41 20 41V39ZM39 20C39 30.4934 30.4934 39 20 39V41C31.598 41 41 31.598 41 20H39ZM20 1C30.4934 1 39 9.50659 39 20H41C41 8.40202 31.598 -1 20 -1V1ZM20 -1C8.40202 -1 -1 8.40202 -1 20H1C1 9.50659 9.50659 1 20 1V-1Z" fill="white"/>
</svg>
