<svg width="145" height="144" viewBox="0 0 145 144" fill="none" xmlns="http://www.w3.org/2000/svg">
<g filter="url(#filter0_d)">
<circle r="36" transform="matrix(-1 0 0 1 72.2739 56)" fill="white"/>
<path d="M74.124 62.5145L79.8979 56.7406C80.1264 56.5241 80.2407 56.2534 80.2407 55.9286C80.2407 55.6039 80.1264 55.3332 79.8979 55.1167L74.124 49.3428C73.9075 49.1143 73.6369 49 73.3121 49C72.9873 49 72.7167 49.1143 72.5001 49.3428C72.2716 49.5593 72.1573 49.83 72.1573 50.1548C72.1573 50.4796 72.2716 50.7502 72.5001 50.9667L76.2892 54.7739H65.2287C64.9039 54.7739 64.6332 54.8881 64.4167 55.1167C64.1882 55.3332 64.0739 55.6039 64.0739 55.9286C64.0739 56.2534 64.1882 56.5301 64.4167 56.7586C64.6332 56.9752 64.9039 57.0834 65.2287 57.0834H76.2892L72.5001 60.8906C72.3798 60.9988 72.2956 61.1251 72.2475 61.2695C72.1874 61.4138 72.1573 61.5582 72.1573 61.7025C72.1573 61.8469 72.1874 61.9912 72.2475 62.1355C72.2956 62.2799 72.3798 62.4062 72.5001 62.5145C72.7167 62.743 72.9873 62.8573 73.3121 62.8573C73.6369 62.8573 73.9075 62.743 74.124 62.5145Z" fill="white"/>
<g clip-path="url(#clip0)">
<path d="M58.9697 49.2793H53.9033C53.2039 49.2793 52.6367 49.8444 52.6367 50.5416V70.7374C52.6367 71.4345 53.2038 71.9997 53.9033 71.9997H58.9696C59.669 71.9997 60.2362 71.4346 60.2362 70.7374V50.5415C60.2362 49.8444 59.6692 49.2793 58.9697 49.2793Z" fill="#007DB7"/>
<path d="M90.6088 52.6266C90.3854 50.6685 88.5501 49.2807 86.5726 49.2807H76.6981C77.5373 47.7832 77.9877 43.5476 77.9677 41.8174C77.9346 38.9533 75.5547 36.6582 72.6808 36.6582H71.6356C70.9356 36.6582 70.369 37.2227 70.369 37.9205C70.369 40.8394 69.2286 46.1079 67.0777 48.2515C65.63 49.6942 64.3924 50.217 62.7695 51.0253V69.9652C65.2541 70.7906 68.4088 72.0012 73.2171 72.0012H81.5023C84.2323 72.0012 86.3585 69.4814 85.3006 66.8191C86.9123 66.3816 88.1009 64.9085 88.1009 63.1655C88.1009 62.6736 88.0057 62.2028 87.8338 61.7701C90.5498 61.0326 91.5495 57.6905 89.6644 55.5919C90.357 54.8209 90.7389 53.7662 90.6088 52.6266Z" fill="#007DB7"/>
</g>
<rect x="-0.5" y="0.5" width="79.2741" height="79" rx="39.5" transform="matrix(-1 0 0 1 111.274 16)" stroke="white"/>
</g>
<defs>
<filter id="filter0_d" x="0" y="0" width="144.274" height="144" filterUnits="userSpaceOnUse" color-interpolation-filters="sRGB">
<feFlood flood-opacity="0" result="BackgroundImageFix"/>
<feColorMatrix in="SourceAlpha" type="matrix" values="0 0 0 0 0 0 0 0 0 0 0 0 0 0 0 0 0 0 127 0"/>
<feOffset dy="16"/>
<feGaussianBlur stdDeviation="16"/>
<feColorMatrix type="matrix" values="0 0 0 0 0.625 0 0 0 0 0.625 0 0 0 0 0.625 0 0 0 0.4 0"/>
<feBlend mode="normal" in2="BackgroundImageFix" result="effect1_dropShadow"/>
<feBlend mode="normal" in="SourceGraphic" in2="effect1_dropShadow" result="shape"/>
</filter>
<clipPath id="clip0">
<rect width="43.1473" height="43" fill="white" transform="translate(50.0615 29)"/>
</clipPath>
</defs>
</svg>
