<svg width="40" height="40" viewBox="0 0 40 40" fill="none" xmlns="http://www.w3.org/2000/svg">
<circle cx="20" cy="20" r="16" fill="white"/>
<path d="M18.1497 26.5145L12.3758 20.7406C12.1472 20.5241 12.033 20.2534 12.033 19.9286C12.033 19.6039 12.1472 19.3332 12.3758 19.1167L18.1497 13.3428C18.3662 13.1143 18.6368 13 18.9616 13C19.2864 13 19.557 13.1143 19.7736 13.3428C20.0021 13.5593 20.1164 13.83 20.1164 14.1548C20.1164 14.4796 20.0021 14.7502 19.7736 14.9667L15.9844 18.7739H27.045C27.3698 18.7739 27.6404 18.8881 27.857 19.1167C28.0855 19.3332 28.1998 19.6039 28.1998 19.9286C28.1998 20.2534 28.0855 20.5301 27.857 20.7586C27.6404 20.9752 27.3698 21.0834 27.045 21.0834H15.9844L19.7736 24.8906C19.8938 24.9988 19.978 25.1251 20.0262 25.2695C20.0863 25.4138 20.1164 25.5582 20.1164 25.7025C20.1164 25.8469 20.0863 25.9912 20.0262 26.1355C19.978 26.2799 19.8938 26.4062 19.7736 26.5145C19.557 26.743 19.2864 26.8573 18.9616 26.8573C18.6368 26.8573 18.3662 26.743 18.1497 26.5145Z" fill="#007DB7"/>
<rect x="0.5" y="0.5" width="39" height="39" rx="19.5" stroke="white"/>
</svg>
