<svg width="40" height="40" viewBox="0 0 40 40" fill="none" xmlns="http://www.w3.org/2000/svg">
<circle cx="20" cy="20" r="16" fill="#007DB7"/>
<path d="M18.1497 26.5145L12.3758 20.7406C12.1473 20.5241 12.033 20.2534 12.033 19.9286C12.033 19.6039 12.1473 19.3332 12.3758 19.1167L18.1497 13.3428C18.3662 13.1143 18.6369 13 18.9617 13C19.2864 13 19.5571 13.1143 19.7736 13.3428C20.0022 13.5593 20.1164 13.83 20.1164 14.1548C20.1164 14.4796 20.0022 14.7502 19.7736 14.9667L15.9845 18.7739H27.0451C27.3699 18.7739 27.6405 18.8881 27.857 19.1167C28.0856 19.3332 28.1999 19.6039 28.1999 19.9286C28.1999 20.2534 28.0856 20.5301 27.857 20.7586C27.6405 20.9752 27.3699 21.0834 27.0451 21.0834H15.9845L19.7736 24.8906C19.8939 24.9988 19.9781 25.1251 20.0262 25.2695C20.0864 25.4138 20.1164 25.5582 20.1164 25.7025C20.1164 25.8469 20.0864 25.9912 20.0262 26.1355C19.9781 26.2799 19.8939 26.4062 19.7736 26.5145C19.5571 26.743 19.2864 26.8573 18.9617 26.8573C18.6369 26.8573 18.3662 26.743 18.1497 26.5145Z" fill="white"/>
<path d="M20 39C9.50659 39 1 30.4934 1 20H-1C-1 31.598 8.40202 41 20 41V39ZM39 20C39 30.4934 30.4934 39 20 39V41C31.598 41 41 31.598 41 20H39ZM20 1C30.4934 1 39 9.50659 39 20H41C41 8.40202 31.598 -1 20 -1V1ZM20 -1C8.40202 -1 -1 8.40202 -1 20H1C1 9.50659 9.50659 1 20 1V-1Z" fill="#007DB7"/>
</svg>
