<svg width="145" height="104" viewBox="0 0 145 104" fill="none" xmlns="http://www.w3.org/2000/svg">
<g filter="url(#filter0_d)">
<ellipse rx="36.5" ry="36" transform="matrix(-1 0 0 1 72.2969 56)" fill="#007DB7"/>
<path d="M74.6472 62.5145L80.4211 56.7406C80.6496 56.5241 80.7639 56.2534 80.7639 55.9286C80.7639 55.6039 80.6496 55.3332 80.4211 55.1167L74.6472 49.3428C74.4307 49.1143 74.1601 49 73.8353 49C73.5105 49 73.2398 49.1143 73.0233 49.3428C72.7948 49.5593 72.6805 49.83 72.6805 50.1548C72.6805 50.4796 72.7948 50.7502 73.0233 50.9667L76.8124 54.7739H65.7519C65.4271 54.7739 65.1564 54.8881 64.9399 55.1167C64.7114 55.3332 64.5971 55.6039 64.5971 55.9286C64.5971 56.2534 64.7114 56.5301 64.9399 56.7586C65.1564 56.9752 65.4271 57.0834 65.7519 57.0834H76.8124L73.0233 60.8906C72.903 60.9988 72.8188 61.1251 72.7707 61.2695C72.7106 61.4138 72.6805 61.5582 72.6805 61.7025C72.6805 61.8469 72.7106 61.9912 72.7707 62.1355C72.8188 62.2799 72.903 62.4062 73.0233 62.5145C73.2398 62.743 73.5105 62.8573 73.8353 62.8573C74.1601 62.8573 74.4307 62.743 74.6472 62.5145Z" fill="#007DB7"/>
<g clip-path="url(#clip0)">
<path d="M59.1457 49.2798H54.0463C53.3423 49.2798 52.7715 49.8449 52.7715 50.5421V70.7379C52.7715 71.435 53.3422 72.0002 54.0463 72.0002H59.1456C59.8496 72.0002 60.4204 71.4351 60.4204 70.7379V50.542C60.4204 49.8449 59.8498 49.2798 59.1457 49.2798Z" fill="white"/>
<path d="M90.9906 52.6257C90.7657 50.6676 88.9184 49.2797 86.9281 49.2797H76.9892C77.8339 47.7822 78.2872 43.5466 78.2671 41.8164C78.2338 38.9523 75.8384 36.6572 72.9457 36.6572H71.8938C71.1892 36.6572 70.6189 37.2218 70.6189 37.9195C70.6189 40.8384 69.4711 46.1069 67.3062 48.2505C65.849 49.6933 64.6034 50.2161 62.97 51.0243V69.9643C65.4707 70.7896 68.6459 72.0002 73.4855 72.0002H81.8248C84.5725 72.0002 86.7126 69.4804 85.6478 66.8181C87.27 66.3806 88.4663 64.9075 88.4663 63.1645C88.4663 62.6726 88.3705 62.2018 88.1974 61.7691C90.9311 61.0316 91.9373 57.6895 90.04 55.591C90.737 54.8199 91.1215 53.7652 90.9906 52.6257Z" fill="white"/>
</g>
<rect x="-0.5" y="0.5" width="79.7968" height="79" rx="39.5" transform="matrix(-1 0 0 1 111.797 16)" stroke="#007DB7"/>
</g>
<defs>
<filter id="filter0_d" x="0" y="0" width="144.797" height="144" filterUnits="userSpaceOnUse" color-interpolation-filters="sRGB">
<feFlood flood-opacity="0" result="BackgroundImageFix"/>
<feColorMatrix in="SourceAlpha" type="matrix" values="0 0 0 0 0 0 0 0 0 0 0 0 0 0 0 0 0 0 127 0"/>
<feOffset dy="16"/>
<feGaussianBlur stdDeviation="16"/>
<feColorMatrix type="matrix" values="0 0 0 0 0.625 0 0 0 0 0.625 0 0 0 0 0.625 0 0 0 0.4 0"/>
<feBlend mode="normal" in2="BackgroundImageFix" result="effect1_dropShadow"/>
<feBlend mode="normal" in="SourceGraphic" in2="effect1_dropShadow" result="shape"/>
</filter>
<clipPath id="clip0">
<rect width="43.4283" height="43" fill="white" transform="translate(50.1794 29)"/>
</clipPath>
</defs>
</svg>
