<svg width="40" height="40" viewBox="0 0 40 40" fill="none" xmlns="http://www.w3.org/2000/svg">
<circle r="16" transform="matrix(-1 0 0 1 20 20)" fill="url(#paint0_linear)"/>
<path d="M21.8503 26.5145L27.6242 20.7406C27.8528 20.5241 27.967 20.2534 27.967 19.9286C27.967 19.6039 27.8528 19.3332 27.6242 19.1167L21.8503 13.3428C21.6338 13.1143 21.3632 13 21.0384 13C20.7136 13 20.443 13.1143 20.2264 13.3428C19.9979 13.5593 19.8836 13.83 19.8836 14.1548C19.8836 14.4796 19.9979 14.7502 20.2264 14.9667L24.0156 18.7739H12.955C12.6302 18.7739 12.3596 18.8881 12.143 19.1167C11.9145 19.3332 11.8002 19.6039 11.8002 19.9286C11.8002 20.2534 11.9145 20.5301 12.143 20.7586C12.3596 20.9752 12.6302 21.0834 12.955 21.0834H24.0156L20.2264 24.8906C20.1062 24.9988 20.022 25.1251 19.9738 25.2695C19.9137 25.4138 19.8836 25.5582 19.8836 25.7025C19.8836 25.8469 19.9137 25.9912 19.9738 26.1355C20.022 26.2799 20.1062 26.4062 20.2264 26.5145C20.443 26.743 20.7136 26.8573 21.0384 26.8573C21.3632 26.8573 21.6338 26.743 21.8503 26.5145Z" fill="#007DB7"/>
<path d="M20 39C30.4934 39 39 30.4934 39 20H41C41 31.598 31.598 41 20 41V39ZM1 20C1 30.4934 9.50659 39 20 39V41C8.40202 41 -1 31.598 -1 20H1ZM20 1C9.50659 1 1 9.50659 1 20H-1C-1 8.40202 8.40202 -1 20 -1V1ZM20 -1C31.598 -1 41 8.40202 41 20H39C39 9.50659 30.4934 1 20 1V-1Z" fill="url(#paint1_linear)"/>
<defs>
<linearGradient id="paint0_linear" x1="16" y1="0" x2="16" y2="32" gradientUnits="userSpaceOnUse">
<stop stop-color="white" stop-opacity="0.76"/>
<stop offset="1" stop-color="white"/>
</linearGradient>
<linearGradient id="paint1_linear" x1="20" y1="0" x2="20" y2="40" gradientUnits="userSpaceOnUse">
<stop stop-color="white" stop-opacity="0.76"/>
<stop offset="1" stop-color="white"/>
</linearGradient>
</defs>
</svg>
