<svg width="145" height="104" viewBox="0 0 145 104" fill="none" xmlns="http://www.w3.org/2000/svg">
<g filter="url(#filter0_d)">
<ellipse rx="36.5" ry="36" transform="matrix(-1 0 0 1 72.2969 56)" fill="white"/>
<path d="M74.647 62.5145L80.4208 56.7406C80.6494 56.5241 80.7637 56.2534 80.7637 55.9286C80.7637 55.6039 80.6494 55.3332 80.4208 55.1167L74.647 49.3428C74.4305 49.1143 74.1598 49 73.835 49C73.5103 49 73.2396 49.1143 73.0231 49.3428C72.7945 49.5593 72.6803 49.83 72.6803 50.1548C72.6803 50.4796 72.7945 50.7502 73.0231 50.9667L76.8122 54.7739H65.7516C65.4268 54.7739 65.1562 54.8881 64.9397 55.1167C64.7111 55.3332 64.5968 55.6039 64.5968 55.9286C64.5968 56.2534 64.7111 56.5301 64.9397 56.7586C65.1562 56.9752 65.4268 57.0834 65.7516 57.0834H76.8122L73.0231 60.8906C72.9028 60.9988 72.8186 61.1251 72.7705 61.2695C72.7103 61.4138 72.6803 61.5582 72.6803 61.7025C72.6803 61.8469 72.7103 61.9912 72.7705 62.1355C72.8186 62.2799 72.9028 62.4062 73.0231 62.5145C73.2396 62.743 73.5103 62.8573 73.835 62.8573C74.1598 62.8573 74.4305 62.743 74.647 62.5145Z" fill="white"/>
<g clip-path="url(#clip0)">
<path d="M59.1452 49.2798H54.0459C53.3418 49.2798 52.771 49.8449 52.771 50.5421V70.7379C52.771 71.435 53.3418 72.0002 54.0459 72.0002H59.1451C59.8491 72.0002 60.42 71.4351 60.42 70.7379V50.542C60.42 49.8449 59.8493 49.2798 59.1452 49.2798Z" fill="#007DB7"/>
<path d="M90.9903 52.6257C90.7655 50.6676 88.9182 49.2797 86.9278 49.2797H76.989C77.8336 47.7822 78.287 43.5466 78.2669 41.8164C78.2336 38.9523 75.8381 36.6572 72.9455 36.6572H71.8935C71.1889 36.6572 70.6187 37.2218 70.6187 37.9195C70.6187 40.8384 69.4708 46.1069 67.3059 48.2505C65.8488 49.6933 64.6031 50.2161 62.9697 51.0243V69.9643C65.4705 70.7896 68.6457 72.0002 73.4853 72.0002H81.8245C84.5723 72.0002 86.7123 69.4804 85.6476 66.8181C87.2698 66.3806 88.4661 64.9075 88.4661 63.1645C88.4661 62.6726 88.3702 62.2018 88.1972 61.7691C90.9309 61.0316 91.9371 57.6895 90.0397 55.591C90.7368 54.8199 91.1212 53.7652 90.9903 52.6257Z" fill="#007DB7"/>
</g>
<rect x="-0.5" y="0.5" width="79.7968" height="79" rx="39.5" transform="matrix(-1 0 0 1 111.797 16)" stroke="white"/>
</g>
<defs>
<filter id="filter0_d" x="0" y="0" width="144.797" height="144" filterUnits="userSpaceOnUse" color-interpolation-filters="sRGB">
<feFlood flood-opacity="0" result="BackgroundImageFix"/>
<feColorMatrix in="SourceAlpha" type="matrix" values="0 0 0 0 0 0 0 0 0 0 0 0 0 0 0 0 0 0 127 0"/>
<feOffset dy="16"/>
<feGaussianBlur stdDeviation="16"/>
<feColorMatrix type="matrix" values="0 0 0 0 0.625 0 0 0 0 0.625 0 0 0 0 0.625 0 0 0 0.4 0"/>
<feBlend mode="normal" in2="BackgroundImageFix" result="effect1_dropShadow"/>
<feBlend mode="normal" in="SourceGraphic" in2="effect1_dropShadow" result="shape"/>
</filter>
<clipPath id="clip0">
<rect width="43.4283" height="43" fill="white" transform="translate(50.1792 29)"/>
</clipPath>
</defs>
</svg>
