<svg width="17" height="20" viewBox="0 0 17 20" fill="none" xmlns="http://www.w3.org/2000/svg">
<path d="M16.252 11.2145V17.6516C14.2192 18.8374 11.8476 19.4303 9.56077 19.3456C4.22474 19.3456 0.074516 15.4495 0.074516 10.1134C-0.0101828 5.0315 4.14005 0.796557 9.22198 0.796557C9.30668 0.796557 9.47607 0.796557 9.56077 0.796557C11.5935 0.711858 13.5416 1.30475 15.2356 2.40583L14.6427 3.42222C11.0006 0.627159 5.83403 1.30475 3.03897 4.8621C0.243914 8.50415 0.921489 13.6708 4.47884 16.4658C5.91872 17.5669 7.69739 18.1598 9.56077 18.2445C11.4241 18.2445 13.3722 17.821 15.0662 16.974V11.1298H16.252V11.2145Z" fill="white"/>
</svg>
