<svg width="57" height="57" viewBox="0 0 57 57" fill="none" xmlns="http://www.w3.org/2000/svg">
<ellipse cx="28.2842" cy="28.2843" rx="16" ry="16" transform="rotate(45 28.2842 28.2843)" fill="#007DB7"/>
<rect x="34.3096" y="20.9119" width="2.60652" height="18.2456" rx="1.08333" transform="rotate(45 34.3096 20.9119)" fill="white"/>
<rect x="36.1528" y="33.8135" width="2.60652" height="18.2456" rx="1.08333" transform="rotate(135 36.1528 33.8135)" fill="white"/>
<path d="M14.8491 41.7193C7.42918 34.2993 7.42918 22.2692 14.8491 14.8492L13.4349 13.435C5.23392 21.636 5.23392 34.9325 13.4349 43.1335L14.8491 41.7193ZM41.7192 41.7193C34.2992 49.1392 22.2691 49.1392 14.8491 41.7193L13.4349 43.1335C21.6359 51.3345 34.9324 51.3345 43.1334 43.1335L41.7192 41.7193ZM41.7192 14.8492C49.1392 22.2692 49.1392 34.2993 41.7192 41.7193L43.1334 43.1335C51.3344 34.9325 51.3344 21.636 43.1334 13.435L41.7192 14.8492ZM43.1334 13.435C34.9324 5.23402 21.6359 5.23402 13.4349 13.435L14.8491 14.8492C22.2691 7.42928 34.2992 7.42928 41.7192 14.8492L43.1334 13.435Z" fill="#007DB7"/>
</svg>
