<svg width="13" height="19" viewBox="0 0 13 19" fill="none" xmlns="http://www.w3.org/2000/svg">
<path d="M12.896 13.0927C12.896 16.3113 10.6092 18.2593 6.71302 18.2593H0.445312V0.133789H5.95074C10.4398 0.133789 12.3031 2.08186 12.3031 4.96162C12.3031 6.7403 11.1174 8.34957 9.42339 8.94246C11.4562 9.36596 12.8113 11.0599 12.896 13.0927ZM5.95074 1.23487H1.63109V8.43427H7.05184C9.4234 8.43427 11.1174 7.07909 11.1174 5.04632C11.1174 2.75945 9.50809 1.23487 5.95074 1.23487ZM11.6256 13.008C11.6256 11.314 10.2704 9.53536 7.05184 9.53536H1.63109V17.0735H6.62834C9.7622 17.0735 11.6256 15.6337 11.6256 13.008Z" fill="white"/>
</svg>
