<svg width="40" height="40" viewBox="0 0 40 40" fill="none" xmlns="http://www.w3.org/2000/svg">
<circle cx="20" cy="20" r="16" fill="#58C141"/>
<rect x="24.6643" y="14.6641" width="6.10473" height="6.10473" transform="rotate(135 24.6643 14.6641)" fill="url(#paint0_linear)"/>
<rect x="18.981" y="20.3477" width="6.10473" height="6.10473" transform="rotate(135 18.981 20.3477)" fill="url(#paint1_linear)"/>
<rect x="30.3477" y="20.3477" width="6.10473" height="6.10473" transform="rotate(135 30.3477 20.3477)" fill="url(#paint2_linear)"/>
<rect x="24.6646" y="26.0312" width="6.10473" height="6.10473" transform="rotate(135 24.6646 26.0312)" fill="url(#paint3_linear)"/>
<path d="M20 39C9.50659 39 1 30.4934 1 20H-1C-1 31.598 8.40202 41 20 41V39ZM39 20C39 30.4934 30.4934 39 20 39V41C31.598 41 41 31.598 41 20H39ZM20 1C30.4934 1 39 9.50659 39 20H41C41 8.40202 31.598 -1 20 -1V1ZM20 -1C8.40202 -1 -1 8.40202 -1 20H1C1 9.50659 9.50659 1 20 1V-1Z" fill="#58C141"/>
<defs>
<linearGradient id="paint0_linear" x1="27.7167" y1="14.6641" x2="27.7167" y2="20.7688" gradientUnits="userSpaceOnUse">
<stop stop-color="white" stop-opacity="0.76"/>
<stop offset="1" stop-color="white"/>
</linearGradient>
<linearGradient id="paint1_linear" x1="22.0333" y1="20.3477" x2="22.0333" y2="26.4524" gradientUnits="userSpaceOnUse">
<stop stop-color="white" stop-opacity="0.76"/>
<stop offset="1" stop-color="white"/>
</linearGradient>
<linearGradient id="paint2_linear" x1="33.4" y1="20.3477" x2="33.4" y2="26.4524" gradientUnits="userSpaceOnUse">
<stop stop-color="white" stop-opacity="0.76"/>
<stop offset="1" stop-color="white"/>
</linearGradient>
<linearGradient id="paint3_linear" x1="27.7169" y1="26.0313" x2="27.7169" y2="32.136" gradientUnits="userSpaceOnUse">
<stop stop-color="white" stop-opacity="0.76"/>
<stop offset="1" stop-color="white"/>
</linearGradient>
</defs>
</svg>
