<svg width="40" height="41" viewBox="0 0 40 41" fill="none" xmlns="http://www.w3.org/2000/svg">
<circle cx="20" cy="20.2568" r="16" fill="url(#paint0_linear)"/>
<rect x="19.0479" y="10.7832" width="2.60652" height="18.2456" rx="1.08333" fill="#F2994A"/>
<rect x="29.4736" y="18.6025" width="2.60652" height="18.2456" rx="1.08333" transform="rotate(90 29.4736 18.6025)" fill="#F2994A"/>
<path d="M20 39.2568C9.50659 39.2568 1 30.7502 1 20.2568H-1C-1 31.8548 8.40202 41.2568 20 41.2568V39.2568ZM39 20.2568C39 30.7502 30.4934 39.2568 20 39.2568V41.2568C31.598 41.2568 41 31.8548 41 20.2568H39ZM20 1.25684C30.4934 1.25684 39 9.76343 39 20.2568H41C41 8.65886 31.598 -0.743164 20 -0.743164V1.25684ZM20 -0.743164C8.40202 -0.743164 -1 8.65886 -1 20.2568H1C1 9.76343 9.50659 1.25684 20 1.25684V-0.743164Z" fill="url(#paint1_linear)"/>
<defs>
<linearGradient id="paint0_linear" x1="20" y1="4.25684" x2="20" y2="36.2568" gradientUnits="userSpaceOnUse">
<stop stop-color="white" stop-opacity="0.76"/>
<stop offset="1" stop-color="white"/>
</linearGradient>
<linearGradient id="paint1_linear" x1="20" y1="0.256836" x2="20" y2="40.2568" gradientUnits="userSpaceOnUse">
<stop stop-color="white" stop-opacity="0.76"/>
<stop offset="1" stop-color="white"/>
</linearGradient>
</defs>
</svg>
