<svg width="20" height="20" viewBox="0 0 20 20" fill="none" xmlns="http://www.w3.org/2000/svg">
<path d="M0.833984 10.1133C0.918683 4.9467 5.06893 0.796458 10.2356 0.881157C15.3175 0.965855 19.4677 5.0314 19.4677 10.1133C19.383 15.28 15.2328 19.4302 10.0662 19.3455C4.98425 19.2608 0.918683 15.1953 0.833984 10.1133ZM18.1972 10.1133C18.2819 5.62429 14.7246 1.98224 10.2356 1.89754C5.74652 1.81284 2.10449 5.37019 2.01979 9.85923C2.01979 9.94393 2.01979 10.0286 2.01979 10.1133C1.93509 14.6024 5.49243 18.2444 9.98147 18.3291C14.4705 18.4138 18.1125 14.8565 18.1972 10.3674C18.1972 10.2827 18.1972 10.198 18.1972 10.1133Z" fill="white"/>
</svg>
