<svg width="40" height="40" viewBox="0 0 40 40" fill="none" xmlns="http://www.w3.org/2000/svg">
<circle cx="20" cy="20" r="16" fill="#16AA7B"/>
<path d="M18.1499 26.5145L12.376 20.7406C12.1475 20.5241 12.0332 20.2534 12.0332 19.9286C12.0332 19.6039 12.1475 19.3332 12.376 19.1167L18.1499 13.3428C18.3664 13.1143 18.6371 13 18.9618 13C19.2866 13 19.5573 13.1143 19.7738 13.3428C20.0023 13.5593 20.1166 13.83 20.1166 14.1548C20.1166 14.4796 20.0023 14.7502 19.7738 14.9667L15.9847 18.7739H27.0453C27.37 18.7739 27.6407 18.8881 27.8572 19.1167C28.0858 19.3332 28.2 19.6039 28.2 19.9286C28.2 20.2534 28.0858 20.5301 27.8572 20.7586C27.6407 20.9752 27.37 21.0834 27.0453 21.0834H15.9847L19.7738 24.8906C19.8941 24.9988 19.9783 25.1251 20.0264 25.2695C20.0865 25.4138 20.1166 25.5582 20.1166 25.7025C20.1166 25.8469 20.0865 25.9912 20.0264 26.1355C19.9783 26.2799 19.8941 26.4062 19.7738 26.5145C19.5573 26.743 19.2866 26.8573 18.9618 26.8573C18.6371 26.8573 18.3664 26.743 18.1499 26.5145Z" fill="white"/>
<path d="M20 39C9.50659 39 1 30.4934 1 20H-1C-1 31.598 8.40202 41 20 41V39ZM39 20C39 30.4934 30.4934 39 20 39V41C31.598 41 41 31.598 41 20H39ZM20 1C30.4934 1 39 9.50659 39 20H41C41 8.40202 31.598 -1 20 -1V1ZM20 -1C8.40202 -1 -1 8.40202 -1 20H1C1 9.50659 9.50659 1 20 1V-1Z" fill="#16AA7B"/>
</svg>
