<svg width="40" height="40" viewBox="0 0 40 40" fill="none" xmlns="http://www.w3.org/2000/svg">
<circle cx="20" cy="20" r="16" transform="rotate(-180 20 20)" fill="#58C141"/>
<path d="M21.8504 13.4855L27.6242 19.2594C27.8528 19.4759 27.967 19.7466 27.967 20.0714C27.967 20.3961 27.8528 20.6668 27.6242 20.8833L21.8503 26.6572C21.6338 26.8857 21.3632 27 21.0384 27C20.7136 27 20.443 26.8857 20.2264 26.6572C19.9979 26.4407 19.8836 26.17 19.8836 25.8452C19.8836 25.5204 19.9979 25.2498 20.2264 25.0333L24.0156 21.2261L12.955 21.2261C12.6302 21.2261 12.3596 21.1119 12.143 20.8833C11.9145 20.6668 11.8002 20.3961 11.8002 20.0714C11.8002 19.7466 11.9145 19.4699 12.143 19.2414C12.3596 19.0248 12.6302 18.9166 12.955 18.9166L24.0156 18.9166L20.2265 15.1094C20.1062 15.0012 20.022 14.8749 19.9738 14.7305C19.9137 14.5862 19.8836 14.4418 19.8836 14.2975C19.8836 14.1531 19.9137 14.0088 19.9738 13.8644C20.022 13.7201 20.1062 13.5938 20.2265 13.4855C20.443 13.257 20.7136 13.1427 21.0384 13.1427C21.3632 13.1427 21.6338 13.257 21.8504 13.4855Z" fill="url(#paint0_linear)"/>
<rect x="39.5" y="39.5" width="39" height="39" rx="19.5" transform="rotate(-180 39.5 39.5)" stroke="#58C141"/>
<defs>
<linearGradient id="paint0_linear" x1="19.8836" y1="27" x2="19.8836" y2="13.1427" gradientUnits="userSpaceOnUse">
<stop stop-color="white" stop-opacity="0.76"/>
<stop offset="1" stop-color="white"/>
</linearGradient>
</defs>
</svg>
